<svg width="42" height="42" viewBox="0 0 42 42" fill="none" xmlns="http://www.w3.org/2000/svg">
<path d="M32.9933 12.2857C21.6362 12.2857 12.4219 21.5 12.4219 32.8571C12.4219 41.9375 18.3147 49.6518 26.4844 52.3839C27.529 52.5714 27.904 51.9286 27.904 51.3929C27.904 50.8839 27.8772 49.2768 27.8772 47.5625C27.8772 47.5625 22.1451 48.7946 20.9397 45.125C20.9397 45.125 20.0022 42.7411 18.6629 42.125C18.6629 42.125 16.7879 40.8393 18.7969 40.8661C18.7969 40.8661 20.8326 41.0268 21.9576 42.9821C23.7522 46.1429 26.7522 45.2321 27.9308 44.6964C28.1183 43.3839 28.654 42.4732 29.2433 41.9375C24.6629 41.4286 19.8683 39.6607 19.8683 31.7857C19.8683 29.5357 20.6719 27.7143 21.9844 26.2679C21.7701 25.7321 21.0737 23.6429 22.1987 20.8036C23.9129 20.2679 27.8504 22.9196 27.8504 22.9196C29.4844 22.4643 31.2522 22.2232 32.9933 22.2232C34.7344 22.2232 36.5022 22.4643 38.1362 22.9196C38.1362 22.9196 42.0737 20.2679 43.7879 20.8036C44.9129 23.6429 44.2165 25.7321 44.0022 26.2679C45.3147 27.7143 46.1183 29.5357 46.1183 31.7857C46.1183 39.6875 41.2969 41.4286 36.7165 41.9375C37.4665 42.5804 38.1094 43.8125 38.1094 45.7411C38.1094 48.5 38.0826 50.7232 38.0826 51.3929C38.0826 51.9286 38.4576 52.5714 39.5022 52.3839C47.6719 49.6518 53.5647 41.9375 53.5647 32.8571C53.5647 21.5 44.3504 12.2857 32.9933 12.2857ZM20.2165 41.8304C20.1629 41.9375 20.0022 41.9643 19.8683 41.8839C19.7076 41.8036 19.6272 41.6696 19.6808 41.5625C19.7344 41.4821 19.8683 41.4554 20.029 41.5089C20.1897 41.5893 20.2701 41.7232 20.2165 41.8304ZM21.0469 42.7411C20.9397 42.8482 20.7522 42.7946 20.6183 42.6607C20.4844 42.5 20.4576 42.3125 20.5647 42.2321C20.6719 42.125 20.8594 42.1786 20.9933 42.3125C21.1272 42.4732 21.154 42.6607 21.0469 42.7411ZM21.8504 43.9464C21.7433 44.0268 21.529 43.9464 21.3951 43.7589C21.2612 43.5714 21.2612 43.3571 21.3951 43.2768C21.529 43.1696 21.7433 43.25 21.8504 43.4375C21.9844 43.625 21.9844 43.8393 21.8504 43.9464ZM22.9754 45.0714C22.8683 45.2054 22.6272 45.1786 22.4397 44.9911C22.2522 44.8304 22.1987 44.5893 22.3326 44.4821C22.4397 44.3482 22.6808 44.375 22.8683 44.5625C23.029 44.7232 23.0826 44.9643 22.9754 45.0714ZM24.5022 45.7411C24.4487 45.9018 24.2076 45.9821 23.9933 45.9018C23.7522 45.8482 23.5915 45.6607 23.6451 45.5C23.6987 45.3393 23.9397 45.2589 24.154 45.3125C24.3951 45.3929 24.5558 45.5804 24.5022 45.7411ZM26.1897 45.875C26.1897 46.0357 26.0022 46.1696 25.7612 46.1696C25.4933 46.1964 25.3058 46.0625 25.3058 45.875C25.3058 45.7143 25.4933 45.5804 25.7344 45.5804C25.9754 45.5536 26.1897 45.6875 26.1897 45.875ZM27.7433 45.6071C27.7701 45.7679 27.6094 45.9286 27.3683 45.9821C27.1272 46.0357 26.9129 45.9286 26.8862 45.7679C26.8594 45.5804 27.0201 45.4196 27.2612 45.3661C27.5022 45.3393 27.7165 45.4464 27.7433 45.6071Z" transform="translate(-12 -11.3555)" fill="black"/>
</svg>
