<svg width="42" height="42" viewBox="0 0 42 42" fill="none" xmlns="http://www.w3.org/2000/svg">
<path d="M39.8504 32.8571C39.8504 36.6339 36.7701 39.7143 32.9933 39.7143C29.2165 39.7143 26.1362 36.6339 26.1362 32.8571C26.1362 29.0804 29.2165 26 32.9933 26C36.7701 26 39.8504 29.0804 39.8504 32.8571ZM43.5469 32.8571C43.5469 27.0179 38.8326 22.3036 32.9933 22.3036C27.154 22.3036 22.4397 27.0179 22.4397 32.8571C22.4397 38.6964 27.154 43.4107 32.9933 43.4107C38.8326 43.4107 43.5469 38.6964 43.5469 32.8571ZM46.4397 21.875C46.4397 20.5089 45.3415 19.4107 43.9754 19.4107C42.6094 19.4107 41.5112 20.5089 41.5112 21.875C41.5112 23.2411 42.6094 24.3393 43.9754 24.3393C45.3415 24.3393 46.4397 23.2411 46.4397 21.875ZM32.9933 15.9821C35.9933 15.9821 42.4219 15.7411 45.1272 16.8125C46.0647 17.1875 46.7612 17.6429 47.4844 18.3661C48.2076 19.0893 48.6629 19.7857 49.0379 20.7232C50.1094 23.4286 49.8683 29.8571 49.8683 32.8571C49.8683 35.8571 50.1094 42.2857 49.0379 44.9911C48.6629 45.9286 48.2076 46.625 47.4844 47.3482C46.7612 48.0714 46.0647 48.5268 45.1272 48.9018C42.4219 49.9732 35.9933 49.7321 32.9933 49.7321C29.9933 49.7321 23.5647 49.9732 20.8594 48.9018C19.9219 48.5268 19.2254 48.0714 18.5022 47.3482C17.779 46.625 17.3237 45.9286 16.9487 44.9911C15.8772 42.2857 16.1183 35.8571 16.1183 32.8571C16.1183 29.8571 15.8772 23.4286 16.9487 20.7232C17.3237 19.7857 17.779 19.0893 18.5022 18.3661C19.2254 17.6429 19.9219 17.1875 20.8594 16.8125C23.5647 15.7411 29.9933 15.9821 32.9933 15.9821ZM53.5647 32.8571C53.5647 30.0179 53.5915 27.2054 53.4308 24.3661C53.2701 21.0714 52.5201 18.1518 50.1094 15.7411C47.6987 13.3304 44.779 12.5804 41.4844 12.4196C38.6451 12.2589 35.8326 12.2857 32.9933 12.2857C30.154 12.2857 27.3415 12.2589 24.5022 12.4196C21.2076 12.5804 18.2879 13.3304 15.8772 15.7411C13.4665 18.1518 12.7165 21.0714 12.5558 24.3661C12.3951 27.2054 12.4219 30.0179 12.4219 32.8571C12.4219 35.6964 12.3951 38.5089 12.5558 41.3482C12.7165 44.6429 13.4665 47.5625 15.8772 49.9732C18.2879 52.3839 21.2076 53.1339 24.5022 53.2946C27.3415 53.4554 30.154 53.4286 32.9933 53.4286C35.8326 53.4286 38.6451 53.4554 41.4844 53.2946C44.779 53.1339 47.6987 52.3839 50.1094 49.9732C52.5201 47.5625 53.2701 44.6429 53.4308 41.3482C53.5915 38.5089 53.5647 35.6964 53.5647 32.8571Z" transform="translate(-12 -12.2639)" fill="black"/>
</svg>
