<svg width="42" height="43" viewBox="0 0 42 43" fill="none" xmlns="http://www.w3.org/2000/svg">
<path d="M18.7701 46.7321V28.1429H24.9576V46.7321H18.7701ZM25.3594 22.4107C25.3594 24.1786 24.0201 25.625 21.8504 25.625H21.8237C19.7344 25.625 18.3951 24.1786 18.3951 22.4107C18.3951 20.5893 19.7879 19.1964 21.904 19.1964C24.0201 19.1964 25.3326 20.5893 25.3594 22.4107ZM41.029 46.7321V36.7946C41.029 34.2768 40.1451 32.5893 37.9219 32.5893C36.2076 32.5893 35.1897 33.7411 34.7344 34.8393C34.5737 35.2411 34.5469 35.8036 34.5469 36.3393V46.7321H28.3594C28.4397 29.8839 28.3594 28.1429 28.3594 28.1429H34.5469V30.8482H34.4933C35.2969 29.5625 36.7701 27.7143 40.0915 27.7143C44.1629 27.7143 47.2165 30.3661 47.2165 36.0714V46.7321H41.029ZM53.5647 20C53.5647 15.7411 50.1094 12.2857 45.8504 12.2857H20.1362C15.8772 12.2857 12.4219 15.7411 12.4219 20V45.7143C12.4219 49.9732 15.8772 53.4286 20.1362 53.4286H45.8504C50.1094 53.4286 53.5647 49.9732 53.5647 45.7143V20Z" transform="translate(-12 -11.3555)" fill="black"/>
</svg>
