<svg width="48" height="39" viewBox="0 0 48 39" fill="none" xmlns="http://www.w3.org/2000/svg">
<path d="M57 27.875C56.1964 28.7589 55.2857 29.5357 54.3214 30.2054C49.8482 33.2321 45.3482 36.2857 40.9821 39.4464C38.7321 41.1071 35.9464 43.1429 33.0268 43.1429H33H32.9732C30.0536 43.1429 27.2679 41.1071 25.0179 39.4464C20.6518 36.2589 16.1518 33.2321 11.7054 30.2054C10.7143 29.5357 9.80357 28.7589 9 27.875V49.1429C9 51.5 10.9286 53.4286 13.2857 53.4286H52.7143C55.0714 53.4286 57 51.5 57 49.1429V27.875ZM57 20C57 17.6429 55.0446 15.7143 52.7143 15.7143H13.2857C10.4196 15.7143 9 17.9643 9 20.5893C9 23.0268 11.7054 26.0536 13.6071 27.3393C17.7589 30.2321 21.9643 33.125 26.1161 36.0446C27.8571 37.25 30.8036 39.7143 32.9732 39.7143H33H33.0268C35.1964 39.7143 38.1429 37.25 39.8839 36.0446C44.0357 33.125 48.2411 30.2321 52.4196 27.3393C54.7768 25.7054 57 23 57 20Z" transform="translate(-9 -15.2639)" fill="black"/>
</svg>
